<?xml version="1.0" encoding="utf-8"?>
<!-- Generator: Adobe Illustrator 19.2.1, SVG Export Plug-In . SVG Version: 6.00 Build 0)  -->
<svg version="1.2" baseProfile="tiny" xmlns="http://www.w3.org/2000/svg" xmlns:xlink="http://www.w3.org/1999/xlink" x="0px"
	 y="0px" viewBox="0 0 24 24" xml:space="preserve">
<g id="stem">
	<path fill="#95A5A6" d="M8.9,19c0,0.2,0,0.3,0,0.5C8.9,21.4,8.2,23,7,24h4h2h4c-1.2-1-1.9-2.6-1.9-4.5c0-0.2,0-0.3,0-0.5H13h-2H8.9
		z"/>
</g>
<g id="shadow">
	<path fill="#7F8C8D" d="M8.9,19c0,0.1,0,0.3,0,0.5c0,0.5,0,1-0.2,1.5h6.5c-0.1-0.5-0.2-1-0.2-1.5c0-0.2,0-0.4,0-0.5h-2h-2H8.9z"/>
</g>
<g id="frame">
	<path fill="#BDC3C7" d="M1,3C0.4,3,0,3.4,0,4v1v2v2v2v1v1v1v2v2v1c0,0.5,0.4,1,1,1h1h13h6h1h1c0.6,0,1-0.5,1-1v-1v-7v-1V9V7V5V4
		c0-0.6-0.4-1-1-1h-1h-5h-1H7H3H2H1z"/>
</g>
<g id="screen">
	<rect x="1" y="4" fill="#455C70" width="22" height="14"/>
</g>
<g id="glare">
	<path fill="#2C3E50" d="M23,5L2,18h19.6H23v-1.6V5z"/>
</g>
<g id="web">
	<path fill="#D5084D" d="M12,5.1c-3.3,0-5.9,2.6-5.9,5.9c0,3.3,2.6,5.9,5.9,5.9c3.3,0,5.9-2.6,5.9-5.9C17.9,7.7,15.3,5.1,12,5.1
		 M11.6,8.4c-0.6,0-1.1-0.1-1.6-0.3c0.4-0.8,1-1.5,1.6-1.9V8.4z M11.6,9.2v1.4H9.3c0-0.6,0.2-1.2,0.3-1.8C10.2,9,10.9,9.2,11.6,9.2
		 M11.6,11.4v1.3c-0.7,0-1.4,0.2-2,0.4c-0.2-0.5-0.3-1.1-0.3-1.7H11.6z M11.6,13.6v2.3c-0.7-0.4-1.3-1.1-1.7-2
		C10.4,13.8,11,13.6,11.6,13.6 M12.4,13.6c0.6,0,1.1,0.2,1.7,0.3c-0.4,0.8-1,1.5-1.7,2V13.6z M12.4,12.8v-1.3h2.3
		c0,0.6-0.1,1.2-0.3,1.7C13.8,12.9,13.1,12.8,12.4,12.8 M12.4,10.6V9.2c0.7,0,1.4-0.2,2-0.4c0.2,0.5,0.3,1.1,0.3,1.8H12.4z
		 M12.4,8.4V6.1c0.7,0.4,1.2,1.1,1.6,1.9C13.6,8.2,13,8.3,12.4,8.4 M13.9,6.3c0.6,0.2,1.2,0.6,1.6,1c-0.2,0.2-0.4,0.3-0.7,0.4
		C14.6,7.2,14.2,6.7,13.9,6.3 M9.2,7.7C8.9,7.6,8.7,7.5,8.5,7.3c0.5-0.4,1-0.8,1.6-1C9.8,6.7,9.4,7.2,9.2,7.7 M8.9,8.5
		c-0.2,0.6-0.4,1.3-0.4,2.1H6.9c0.1-1,0.4-1.9,1-2.6C8.2,8.1,8.5,8.3,8.9,8.5 M8.5,11.4c0,0.7,0.2,1.4,0.4,2.1
		c-0.3,0.2-0.6,0.4-0.9,0.6c-0.6-0.7-0.9-1.7-1-2.6L8.5,11.4L8.5,11.4z M9.2,14.3c0.3,0.5,0.6,1,1,1.4c-0.6-0.2-1.1-0.6-1.6-1
		C8.7,14.5,8.9,14.4,9.2,14.3 M14.8,14.3c0.2,0.1,0.5,0.3,0.7,0.4c-0.5,0.4-1,0.8-1.6,1C14.3,15.3,14.6,14.8,14.8,14.3 M15.2,13.5
		c0.2-0.6,0.4-1.3,0.4-2.1h1.5c-0.1,1-0.4,1.9-1,2.6C15.8,13.8,15.5,13.7,15.2,13.5 M15.5,10.6c0-0.7-0.2-1.4-0.4-2.1
		c0.3-0.2,0.6-0.4,0.9-0.6c0.6,0.7,0.9,1.7,1,2.6L15.5,10.6L15.5,10.6z"/>
</g>
</svg>
