<svg id="center_yellow" data-name="center yellow" xmlns="http://www.w3.org/2000/svg" xmlns:xlink="http://www.w3.org/1999/xlink" viewBox="0 0 135.92 134.05"><defs><style>.cls-1,.cls-10,.cls-12,.cls-13,.cls-4{fill:none;}.cls-2,.cls-5{fill:#d5084d;}.cls-12,.cls-13,.cls-2,.cls-3,.cls-7,.cls-8,.cls-9{stroke:#00b0fe;}.cls-10,.cls-12,.cls-13,.cls-2,.cls-3,.cls-4,.cls-7,.cls-8,.cls-9{stroke-miterlimit:10;}.cls-2{stroke-width:0.1px;}.cls-14,.cls-3,.cls-7,.cls-8,.cls-9{fill:#00b0fe;}.cls-3{stroke-width:0.25px;opacity:0.74;}.cls-10,.cls-4{stroke:#d5084d;}.cls-4{stroke-width:0.38px;}.cls-6{clip-path:url(#clip-path);}.cls-7{stroke-width:0.32px;}.cls-7,.cls-8{opacity:0.45;}.cls-8{stroke-width:0.32px;}.cls-9{stroke-width:0.77px;}.cls-10{stroke-width:0.77px;stroke-dasharray:4.66 4.66;}.cls-11{opacity:0.5;}.cls-12{stroke-width:2px;}.cls-13{stroke-width:2.31px;}</style><clipPath id="clip-path" transform="translate(-0.58 -0.78)"><polygon class="cls-1" points="69.48 65.95 48.28 33.59 61.94 25.96 69.48 65.95"/></clipPath></defs><title>tech-hud-icon-4</title><circle class="cls-2" cx="68.9" cy="65.17" r="6.34"/><path class="cls-3" d="M69.48,50.57a15.37,15.37,0,0,0-3.18.33L67,54.68A11.51,11.51,0,0,1,80.31,69.87L84,71.09A15.34,15.34,0,0,0,69.48,50.57Z" transform="translate(-0.58 -0.78)"/><path class="cls-3" d="M70.78,77.4A11.48,11.48,0,0,1,58,67.39l-3.82.42A15.28,15.28,0,0,0,71.3,81.21Z" transform="translate(-0.58 -0.78)"/><path id="_6" data-name="6" class="cls-4" d="M69.48,89A23.07,23.07,0,1,1,92.55,65.95,23.1,23.1,0,0,1,69.48,89Z" transform="translate(-0.58 -0.78)"/><g id="_6-2" data-name="6"><path class="cls-5" d="M69.48,87.62A21.67,21.67,0,1,1,91.15,65.95,21.7,21.7,0,0,1,69.48,87.62Zm0-43A21.32,21.32,0,1,0,90.79,65.95,21.34,21.34,0,0,0,69.48,44.63Z" transform="translate(-0.58 -0.78)"/></g><g class="cls-6"><path class="cls-5" d="M73.47,43.22A23.07,23.07,0,1,0,92.2,69.94,23.1,23.1,0,0,0,73.47,43.22ZM65.78,86.94a21.32,21.32,0,1,1,24.69-17.3A21.34,21.34,0,0,1,65.78,86.94Z" transform="translate(-0.58 -0.78)"/></g><path class="cls-7" d="M46.77,81.73a27.63,27.63,0,0,1,17.87-43,27.78,27.78,0,0,1,3.24-.37L67.38,28A37.94,37.94,0,0,0,32,72.5a37.84,37.84,0,0,0,6.25,15.13Z" transform="translate(-0.58 -0.78)"/><path class="cls-8" d="M93.46,52.36a27.69,27.69,0,0,1-3.66,32.1l7.73,6.89a38,38,0,0,0,4.92-44.12Z" transform="translate(-0.58 -0.78)"/><path class="cls-9" d="M40.9,27.92l2.22,3A44.84,44.84,0,0,1,110.75,53.6l3.55-1.07A48.68,48.68,0,0,0,40.9,27.92Z" transform="translate(-0.58 -0.78)"/><path class="cls-9" d="M109.86,82.52l0,0.1c-7.44,18.05-26.38,28.08-45.46,25.59l-0.42,3.62c20.72,2.71,41.29-8.17,49.36-27.77l0-.12Z" transform="translate(-0.58 -0.78)"/><circle class="cls-10" cx="68.67" cy="65.37" r="51.91"/><g class="cls-11"><path class="cls-12" d="M108,106.69a56.07,56.07,0,0,1-65.14,9" transform="translate(-0.58 -0.78)"/><path class="cls-12" d="M13.13,64.46A56.14,56.14,0,0,1,94.4,16" transform="translate(-0.58 -0.78)"/></g><circle class="cls-13" cx="69.05" cy="65.75" r="62.68"/><g id="outer-thick_lines" data-name="outer-thick lines"><path class="cls-14" d="M69.63,132.29A65.83,65.83,0,0,1,3.87,66.54c0-1.12,0-2.26.08-3.37l6.14,0.31c-0.05,1-.08,2-0.08,3.06a59.67,59.67,0,0,0,59.6,59.6h1.26L71,132.28Z" transform="translate(-0.58 -0.78)"/><path class="cls-14" d="M135.37,67.95l-6.15-.13q0-.64,0-1.28a59.67,59.67,0,0,0-59.6-59.6q-1.1,0-2.19,0L67.21,0.82q1.2,0,2.42,0a65.83,65.83,0,0,1,65.76,65.75Q135.38,67.24,135.37,67.95Z" transform="translate(-0.58 -0.78)"/><path class="cls-14" d="M99.29,125.23l-2.78-5.49a60,60,0,0,0,30-35.49l5.87,1.83A66.16,66.16,0,0,1,99.29,125.23Z" transform="translate(-0.58 -0.78)"/><path class="cls-14" d="M101.05,129.21L97,121.28a64,64,0,0,0,31-36.44l8.5,2.74A73.14,73.14,0,0,1,101.05,129.21Z" transform="translate(-0.58 -0.78)"/><path class="cls-14" d="M12.77,48.59L6.91,46.74A66.21,66.21,0,0,1,39.77,7.93l2.8,5.48A60,60,0,0,0,12.77,48.59Z" transform="translate(-0.58 -0.78)"/><path class="cls-14" d="M9.4,47.63L0.58,44.71A74.27,74.27,0,0,1,36.83,2.28l4.25,8.27A64.9,64.9,0,0,0,9.4,47.63Z" transform="translate(-0.58 -0.78)"/><path class="cls-14" d="M51.26,134.83A71,71,0,0,1,7.57,101.66l7.73-4.46a62.07,62.07,0,0,0,38.17,29Z" transform="translate(-0.58 -0.78)"/></g></svg>