<?xml version="1.0" encoding="utf-8"?>
<!-- Generator: Adobe Illustrator 19.2.1, SVG Export Plug-In . SVG Version: 6.00 Build 0)  -->
<svg version="1.1" xmlns="http://www.w3.org/2000/svg" xmlns:xlink="http://www.w3.org/1999/xlink" x="0px" y="0px"
	 viewBox="0 0 256 256" style="enable-background:new 0 0 256 256;" xml:space="preserve">
<style type="text/css">
	.st0{fill:url(#SVGID_1_);}
	.st1{fill:url(#SVGID_2_);}
	.st2{fill:url(#SVGID_3_);}
	.st3{fill:url(#SVGID_4_);}
	.st4{fill:url(#SVGID_5_);}
	.st5{fill:url(#SVGID_6_);}
</style>
<g id="background">
	<circle cx="128.1" cy="127.9" r="123.4"/>
</g>
<g id="circle-red">
	
		<linearGradient id="SVGID_1_" gradientUnits="userSpaceOnUse" x1="68.5607" y1="27.0139" x2="187.5643" y2="233.1341" gradientTransform="matrix(1 0 0 -1 0 258)">
		<stop  offset="0" style="stop-color:#D5084D"/>
		<stop  offset="0.1034" style="stop-color:#D71053"/>
		<stop  offset="0.2669" style="stop-color:#DC2765"/>
		<stop  offset="0.4702" style="stop-color:#E44C81"/>
		<stop  offset="0.7051" style="stop-color:#EF80A8"/>
		<stop  offset="0.964" style="stop-color:#FDC1DA"/>
		<stop  offset="1" style="stop-color:#FFCBE1"/>
	</linearGradient>
	<path class="st0" d="M128.1,247c-65.6,0-119-53.4-119-119c0-65.6,53.4-119,119-119c65.6,0,119,53.4,119,119
		C247.1,193.6,193.7,247,128.1,247z M128.1,14.5c-62.5,0-113.4,50.9-113.4,113.4s50.9,113.4,113.4,113.4
		c62.5,0,113.4-50.9,113.4-113.4C241.5,65.4,190.6,14.5,128.1,14.5z"/>
</g>
<g id="circle">
	
		<linearGradient id="SVGID_2_" gradientUnits="userSpaceOnUse" x1="68.5607" y1="27.0139" x2="187.5643" y2="233.1341" gradientTransform="matrix(1 0 0 -1 0 258)">
		<stop  offset="0" style="stop-color:#00ADEE"/>
		<stop  offset="1" style="stop-color:#C3FDEE"/>
	</linearGradient>
	<path class="st1" d="M128.1,247c-65.6,0-119-53.4-119-119c0-65.6,53.4-119,119-119c65.6,0,119,53.4,119,119
		C247.1,193.6,193.7,247,128.1,247z M128.1,14.5c-62.5,0-113.4,50.9-113.4,113.4s50.9,113.4,113.4,113.4
		c62.5,0,113.4-50.9,113.4-113.4C241.5,65.4,190.6,14.5,128.1,14.5z"/>
</g>
<g id="play-frame-red">
	
		<linearGradient id="SVGID_3_" gradientUnits="userSpaceOnUse" x1="93.7367" y1="68.7602" x2="162.423" y2="187.7284" gradientTransform="matrix(1 0 0 -1 0 258)">
		<stop  offset="0" style="stop-color:#D5084D"/>
		<stop  offset="0.1034" style="stop-color:#D71053"/>
		<stop  offset="0.2669" style="stop-color:#DC2765"/>
		<stop  offset="0.4702" style="stop-color:#E44C81"/>
		<stop  offset="0.7051" style="stop-color:#EF80A8"/>
		<stop  offset="0.964" style="stop-color:#FDC1DA"/>
		<stop  offset="1" style="stop-color:#FFCBE1"/>
	</linearGradient>
	<path class="st2" d="M129.4,179.8c-3.3,0-6.7-0.1-9.9-0.1c-1.7,0-3.4-0.1-5.1-0.1c-3.5,0-7-0.1-10.5-0.2l-3.3-0.1
		c-6-0.2-12.3-0.3-18.4-0.9c-2.5-0.2-5.4-0.5-8.2-1.4c-6.2-1.9-10.4-5.8-12.5-11.7c-1.1-3-1.8-5.8-2.2-8.7c-0.1-1-0.2-1.9-0.3-2.9
		c0-0.6-0.1-1.2-0.1-1.7c-0.4-3.9-0.6-7.8-0.7-11.6l0-0.2c-0.1-2.2-0.1-4.5,0-6.9l0-0.7c0-4.5-0.1-9.1,0-13.6
		c0.1-4.4,0.5-8.8,0.9-13.2c0.4-4.5,1.3-8.4,2.6-12.2c1.9-5.2,5.6-8.9,10.8-11.1c2.9-1.2,5.9-1.5,8.6-1.7c5.8-0.4,12-0.7,20-0.9
		c7.1-0.2,12.5-0.3,17.6-0.3l0.2,0c0.3,0,0.6,0,0.9,0c0.3,0,0.6,0,0.8,0c0.5,0,1.2,0,1.8-0.1l0.3,0l11.3,0c0.6,0.1,1.2,0.1,1.7,0.1
		l0.8,0c0.3,0,0.6,0,0.8,0l0.3,0c6.4,0.1,12.9,0.2,19.3,0.4c6.2,0.2,12.9,0.4,19.5,1c4.9,0.4,8.6,1.7,11.6,4c2.6,2,4.4,4,5.6,6.5
		c1.9,3.8,3,8,3.5,12.8c0.7,7,1,12.3,1.1,17.3c0,2.7,0,5.4,0,8.1c0,1.2,0,2.3,0,3.5c0.1,3.1,0,6.5-0.2,10.5
		c-0.3,5.2-0.6,9.5-1.1,13.4c-0.3,2.6-1.1,5-1.7,7c-0.8,2.5-1.8,4.5-3,6.1c-1.3,1.8-3,3.4-5.3,4.8c-2.5,1.6-5.4,2.6-8.6,3
		c-2.1,0.3-4.2,0.4-6.5,0.5c-2,0.1-4,0.2-6,0.3l-2.5,0.1c-3.4,0.2-6.9,0.3-10.3,0.3l-3.1,0.1c-4,0.1-8,0.2-11.9,0.2
		c-1.6,0-3.2,0-4.7,0.1C132.1,179.8,130.7,179.8,129.4,179.8z M118.7,84.5h-0.2c-5.1,0-10.5,0.1-17.5,0.3c-7.9,0.2-14,0.5-19.8,0.9
		c-2.4,0.2-4.9,0.4-7.1,1.3c-4,1.7-6.7,4.4-8.2,8.4c-1.2,3.3-2,6.9-2.4,10.9c-0.4,4.4-0.7,8.6-0.9,13c-0.1,4.5-0.1,9,0,13.4l0,0.7
		c-0.1,2.4,0,4.5,0,6.6l0,0.2c0.2,3.7,0.3,7.6,0.7,11.3c0.1,0.6,0.1,1.2,0.2,1.9c0.1,0.9,0.1,1.7,0.3,2.6c0.4,2.5,1,5.1,2,7.8
		c1.6,4.5,4.7,7.4,9.4,8.8c2.4,0.7,5,1,7.3,1.2c6,0.5,12.2,0.7,18.1,0.8l3.3,0.1c3.4,0.1,6.9,0.2,10.4,0.2c1.7,0,3.4,0,5.1,0.1
		c4.5,0.1,9.2,0.1,13.8,0.1c1.6,0,3.2,0,4.7-0.1c3.9-0.1,7.9-0.1,11.8-0.2l3.1-0.1c3.3-0.1,6.8-0.2,10.1-0.3l2.5-0.1
		c2-0.1,4-0.2,5.9-0.3c2.2-0.1,4.2-0.3,6.1-0.5c2.6-0.3,4.7-1.1,6.7-2.3c1.7-1.1,3-2.3,4-3.6c0.9-1.2,1.6-2.8,2.3-4.9
		c0.8-2.3,1.3-4.2,1.5-6.1c0.5-3.8,0.8-7.9,1.1-13c0.2-3.8,0.3-7.1,0.2-10.1c0-1.2,0-2.4,0-3.6c0-2.6,0-5.3,0-8
		c-0.1-4.8-0.4-10-1.1-16.8c-0.4-4.2-1.4-7.9-3-11.2c-0.8-1.8-2.2-3.3-4.2-4.8c-2.4-1.8-5.2-2.7-9.2-3.1c-6.5-0.5-13.1-0.8-19.3-1
		c-6.4-0.2-12.9-0.3-19.2-0.4l-0.3,0l-0.8,0c-0.3,0-0.6,0-0.8,0c-0.6,0-1.4,0-2.2-0.1h-10.7c-0.8,0.1-1.6,0.1-2.2,0.1
		c-0.3,0-0.6,0-0.9,0C119.3,84.5,119,84.5,118.7,84.5z"/>
</g>
<g id="play-frame">
	
		<linearGradient id="SVGID_4_" gradientUnits="userSpaceOnUse" x1="93.7367" y1="68.7602" x2="162.423" y2="187.7284" gradientTransform="matrix(1 0 0 -1 0 258)">
		<stop  offset="0" style="stop-color:#00ADEE"/>
		<stop  offset="1" style="stop-color:#C3FDEE"/>
	</linearGradient>
	<path class="st3" d="M129.4,179.8c-3.3,0-6.7-0.1-9.9-0.1c-1.7,0-3.4-0.1-5.1-0.1c-3.5,0-7-0.1-10.5-0.2l-3.3-0.1
		c-6-0.2-12.3-0.3-18.4-0.9c-2.5-0.2-5.4-0.5-8.2-1.4c-6.2-1.9-10.4-5.8-12.5-11.7c-1.1-3-1.8-5.8-2.2-8.7c-0.1-1-0.2-1.9-0.3-2.9
		c0-0.6-0.1-1.2-0.1-1.7c-0.4-3.9-0.6-7.8-0.7-11.6l0-0.2c-0.1-2.2-0.1-4.5,0-6.9l0-0.7c0-4.5-0.1-9.1,0-13.6
		c0.1-4.4,0.5-8.8,0.9-13.2c0.4-4.5,1.3-8.4,2.6-12.2c1.9-5.2,5.6-8.9,10.8-11.1c2.9-1.2,5.9-1.5,8.6-1.7c5.8-0.4,12-0.7,20-0.9
		c7.1-0.2,12.5-0.3,17.6-0.3l0.2,0c0.3,0,0.6,0,0.9,0c0.3,0,0.6,0,0.8,0c0.5,0,1.2,0,1.8-0.1l0.3,0l11.3,0c0.6,0.1,1.2,0.1,1.7,0.1
		l0.8,0c0.3,0,0.6,0,0.8,0l0.3,0c6.4,0.1,12.9,0.2,19.3,0.4c6.2,0.2,12.9,0.4,19.5,1c4.9,0.4,8.6,1.7,11.6,4c2.6,2,4.4,4,5.6,6.5
		c1.9,3.8,3,8,3.5,12.8c0.7,7,1,12.3,1.1,17.3c0,2.7,0,5.4,0,8.1c0,1.2,0,2.3,0,3.5c0.1,3.1,0,6.5-0.2,10.5
		c-0.3,5.2-0.6,9.5-1.1,13.4c-0.3,2.6-1.1,5-1.7,7c-0.8,2.5-1.8,4.5-3,6.1c-1.3,1.8-3,3.4-5.3,4.8c-2.5,1.6-5.4,2.6-8.6,3
		c-2.1,0.3-4.2,0.4-6.5,0.5c-2,0.1-4,0.2-6,0.3l-2.5,0.1c-3.4,0.2-6.9,0.3-10.3,0.3l-3.1,0.1c-4,0.1-8,0.2-11.9,0.2
		c-1.6,0-3.2,0-4.7,0.1C132.1,179.8,130.7,179.8,129.4,179.8z M118.7,84.5h-0.2c-5.1,0-10.5,0.1-17.5,0.3c-7.9,0.2-14,0.5-19.8,0.9
		c-2.4,0.2-4.9,0.4-7.1,1.3c-4,1.7-6.7,4.4-8.2,8.4c-1.2,3.3-2,6.9-2.4,10.9c-0.4,4.4-0.7,8.6-0.9,13c-0.1,4.5-0.1,9,0,13.4l0,0.7
		c-0.1,2.4,0,4.5,0,6.6l0,0.2c0.2,3.7,0.3,7.6,0.7,11.3c0.1,0.6,0.1,1.2,0.2,1.9c0.1,0.9,0.1,1.7,0.3,2.6c0.4,2.5,1,5.1,2,7.8
		c1.6,4.5,4.7,7.4,9.4,8.8c2.4,0.7,5,1,7.3,1.2c6,0.5,12.2,0.7,18.1,0.8l3.3,0.1c3.4,0.1,6.9,0.2,10.4,0.2c1.7,0,3.4,0,5.1,0.1
		c4.5,0.1,9.2,0.1,13.8,0.1c1.6,0,3.2,0,4.7-0.1c3.9-0.1,7.9-0.1,11.8-0.2l3.1-0.1c3.3-0.1,6.8-0.2,10.1-0.3l2.5-0.1
		c2-0.1,4-0.2,5.9-0.3c2.2-0.1,4.2-0.3,6.1-0.5c2.6-0.3,4.7-1.1,6.7-2.3c1.7-1.1,3-2.3,4-3.6c0.9-1.2,1.6-2.8,2.3-4.9
		c0.8-2.3,1.3-4.2,1.5-6.1c0.5-3.8,0.8-7.9,1.1-13c0.2-3.8,0.3-7.1,0.2-10.1c0-1.2,0-2.4,0-3.6c0-2.6,0-5.3,0-8
		c-0.1-4.8-0.4-10-1.1-16.8c-0.4-4.2-1.4-7.9-3-11.2c-0.8-1.8-2.2-3.3-4.2-4.8c-2.4-1.8-5.2-2.7-9.2-3.1c-6.5-0.5-13.1-0.8-19.3-1
		c-6.4-0.2-12.9-0.3-19.2-0.4l-0.3,0l-0.8,0c-0.3,0-0.6,0-0.8,0c-0.6,0-1.4,0-2.2-0.1h-10.7c-0.8,0.1-1.6,0.1-2.2,0.1
		c-0.3,0-0.6,0-0.9,0C119.3,84.5,119,84.5,118.7,84.5z"/>
</g>
<g id="play-red">
	<linearGradient id="SVGID_5_" gradientUnits="userSpaceOnUse" x1="99.8273" y1="148.3732" x2="139.7616" y2="108.4389">
		<stop  offset="0" style="stop-color:#D5084D"/>
		<stop  offset="1" style="stop-color:#FFCBE1"/>
	</linearGradient>
	<path class="st4" d="M108.2,155.8c-0.4,0-0.8-0.1-1.2-0.3c-0.7-0.4-1.1-1.2-1.1-2l0-50.2c0-0.8,0.4-1.6,1.1-2
		c0.7-0.4,1.6-0.5,2.3-0.1l48.2,25.1c0.8,0.4,1.3,1.2,1.3,2.1c0,0.9-0.5,1.7-1.3,2.1l-48.2,25C109,155.7,108.6,155.8,108.2,155.8z
		 M110.6,107.2l0,42.4l40.8-21.2L110.6,107.2z"/>
</g>
<g id="play">
	
		<linearGradient id="SVGID_6_" gradientUnits="userSpaceOnUse" x1="108.8576" y1="101.4674" x2="134.0926" y2="145.1758" gradientTransform="matrix(1 0 0 -1 0 258)">
		<stop  offset="0" style="stop-color:#00ADEE"/>
		<stop  offset="1" style="stop-color:#C3FDEE"/>
	</linearGradient>
	<path class="st5" d="M108.2,155.8c-0.4,0-0.8-0.1-1.2-0.3c-0.7-0.4-1.1-1.2-1.1-2l0-50.2c0-0.8,0.4-1.6,1.1-2
		c0.7-0.4,1.6-0.5,2.3-0.1l48.2,25.1c0.8,0.4,1.3,1.2,1.3,2.1c0,0.9-0.5,1.7-1.3,2.1l-48.2,25C109,155.7,108.6,155.8,108.2,155.8z
		 M110.6,107.2l0,42.4l40.8-21.2L110.6,107.2z"/>
</g>
</svg>
